<svg width="226" height="223" viewBox="0 0 226 223" fill="none" xmlns="http://www.w3.org/2000/svg">
<circle cx="113" cy="113" r="107.5" fill="#101010" stroke="#E8E8E8" stroke-width="5"/>
<circle cx="113" cy="113" r="60.5" stroke="#F742E4" stroke-width="5"/>
<path d="M56.9866 173.749L49.8481 181.009L47.3098 178.513C46.8041 178.016 46.4729 177.519 46.3164 177.021C46.1575 176.525 46.1418 176.052 46.2692 175.601C46.3943 175.152 46.6312 174.75 46.9797 174.396C47.2865 174.084 47.5953 173.881 47.9062 173.787C48.2148 173.691 48.517 173.672 48.8128 173.73C49.1062 173.786 49.3848 173.888 49.6485 174.036L49.7183 173.965C49.51 173.732 49.3634 173.435 49.2783 173.072C49.1932 172.71 49.2052 172.322 49.3142 171.908C49.4232 171.495 49.6659 171.097 50.0424 170.714C50.4002 170.35 50.8048 170.104 51.256 169.976C51.7073 169.848 52.195 169.874 52.7192 170.055C53.2433 170.236 53.7914 170.607 54.3633 171.17L56.9866 173.749ZM55.3406 173.664L53.5965 171.95C53.0222 171.385 52.5053 171.095 52.0458 171.08C51.5816 171.065 51.1927 171.217 50.879 171.537C50.6373 171.782 50.4769 172.071 50.3976 172.402C50.3161 172.735 50.3295 173.079 50.438 173.432C50.5441 173.787 50.7555 174.12 51.0722 174.432L52.8589 176.189L55.3406 173.664ZM52.106 176.954L50.4753 175.351C50.2106 175.091 49.9207 174.908 49.6058 174.803C49.2885 174.695 48.9743 174.674 48.6631 174.74C48.3496 174.804 48.0673 174.963 47.8164 175.219C47.5027 175.538 47.3477 175.917 47.3514 176.358C47.3528 176.801 47.5945 177.26 48.0767 177.734L49.7357 179.365L52.106 176.954Z" fill="#E8E8E8"/>
<path d="M46.1335 161.382C46.5707 161.974 46.8172 162.581 46.8729 163.203C46.9241 163.825 46.7994 164.426 46.4988 165.006C46.1936 165.586 45.7265 166.109 45.0973 166.573C44.4681 167.038 43.8289 167.333 43.1797 167.458C42.5258 167.583 41.9117 167.538 41.3372 167.323C40.758 167.108 40.2637 166.724 39.8541 166.169C39.6178 165.849 39.4377 165.494 39.314 165.103C39.1902 164.712 39.1538 164.301 39.2047 163.867C39.2529 163.436 39.4168 163 39.6965 162.558C39.9761 162.117 40.4026 161.685 40.9757 161.261L41.3756 160.966L44.873 165.701L44.0572 166.303L41.2688 162.528C40.9222 162.784 40.6641 163.082 40.4946 163.421C40.3231 163.758 40.2523 164.111 40.282 164.481C40.3099 164.848 40.4498 165.202 40.7019 165.543C40.9795 165.919 41.3131 166.175 41.7025 166.312C42.0873 166.448 42.4818 166.48 42.8861 166.408C43.2903 166.336 43.6617 166.175 44.0003 165.925L44.5441 165.523C45.008 165.181 45.3422 164.81 45.5466 164.412C45.7464 164.013 45.8239 163.607 45.7792 163.195C45.7318 162.785 45.5673 162.39 45.2857 162.009C45.1026 161.761 44.9025 161.562 44.6855 161.414C44.4639 161.264 44.2282 161.168 43.9786 161.126C43.7264 161.086 43.4641 161.104 43.1917 161.182L42.7742 160.081C43.1543 159.949 43.5454 159.909 43.9474 159.962C44.3467 160.018 44.7347 160.164 45.1115 160.4C45.4856 160.639 45.8263 160.967 46.1335 161.382Z" fill="#E8E8E8"/>
<path d="M37.8077 140.395L27.8438 143.707L27.4862 142.631L28.6373 142.249L28.5934 142.116C28.4404 142.076 28.2424 142.017 27.9993 141.937C27.752 141.855 27.5058 141.703 27.2608 141.48C27.0115 141.256 26.8085 140.908 26.6517 140.436C26.4488 139.826 26.4226 139.237 26.5729 138.67C26.7233 138.103 27.035 137.596 27.5081 137.149C27.9811 136.702 28.5982 136.352 29.3594 136.099C30.1268 135.844 30.8354 135.753 31.4852 135.827C32.1318 135.902 32.686 136.119 33.148 136.479C33.6067 136.84 33.9365 137.323 34.1372 137.927C34.2919 138.392 34.3388 138.79 34.2777 139.121C34.2135 139.454 34.1074 139.728 33.9594 139.945C33.8083 140.163 33.6803 140.335 33.5754 140.46L33.6068 140.555L37.4376 139.281L37.8077 140.395ZM31.1032 141.408C31.6504 141.226 32.1066 140.985 32.4716 140.686C32.8334 140.387 33.081 140.045 33.2145 139.658C33.3448 139.273 33.3357 138.857 33.1872 138.41C33.0325 137.944 32.7807 137.597 32.4319 137.367C32.0789 137.135 31.6671 137.01 31.1965 136.992C30.7217 136.971 30.2264 137.047 29.7106 137.219C29.2011 137.388 28.768 137.619 28.4114 137.912C28.0506 138.203 27.803 138.546 27.6685 138.94C27.5298 139.332 27.5389 139.764 27.6957 140.235C27.8463 140.688 28.0876 141.031 28.4196 141.263C28.7485 141.496 29.1436 141.623 29.6047 141.644C30.0627 141.666 30.5622 141.588 31.1032 141.408Z" fill="#E8E8E8"/>
<path d="M31.3263 126.26C31.405 126.737 31.3864 127.185 31.2707 127.604C31.1516 128.023 30.9393 128.376 30.6336 128.661C30.3247 128.947 29.9249 129.131 29.4344 129.212C29.0027 129.283 28.6388 129.255 28.3426 129.129C28.0431 129.004 27.7931 128.812 27.5926 128.553C27.392 128.293 27.2258 127.998 27.094 127.667C26.9584 127.334 26.8389 126.996 26.7355 126.653C26.6012 126.205 26.4959 125.841 26.4196 125.561C26.3395 125.279 26.251 125.079 26.1543 124.96C26.057 124.838 25.9151 124.793 25.7287 124.824L25.6895 124.83C25.2054 124.91 24.8512 125.104 24.6267 125.413C24.4016 125.719 24.333 126.139 24.4208 126.672C24.5118 127.224 24.7042 127.638 24.9979 127.912C25.2917 128.186 25.5864 128.364 25.8821 128.446L25.6707 129.61C25.1805 129.489 24.7809 129.286 24.472 129.001C24.1592 128.713 23.9201 128.383 23.7546 128.011C23.5853 127.636 23.4694 127.258 23.4069 126.879C23.367 126.637 23.3507 126.354 23.3578 126.031C23.3612 125.704 23.4269 125.379 23.555 125.056C23.6826 124.729 23.9084 124.438 24.2326 124.183C24.5567 123.928 25.018 123.752 25.6165 123.653L30.5808 122.835L30.7715 123.993L29.7512 124.161L29.7609 124.22C29.9373 124.271 30.1338 124.373 30.3504 124.526C30.567 124.678 30.7657 124.896 30.9467 125.178C31.1276 125.461 31.2541 125.821 31.3263 126.26ZM30.2573 126.254C30.1818 125.796 30.0283 125.425 29.7967 125.141C29.5646 124.854 29.2931 124.653 28.9822 124.54C28.6707 124.423 28.358 124.391 28.0441 124.442L26.9845 124.617C27.0514 124.656 27.1232 124.755 27.1997 124.914C27.2724 125.07 27.3446 125.253 27.4161 125.463C27.4838 125.67 27.5475 125.873 27.607 126.071C27.6628 126.267 27.7091 126.426 27.7459 126.547C27.8347 126.842 27.9448 127.112 28.0762 127.359C28.2038 127.604 28.3674 127.792 28.5672 127.923C28.7631 128.052 29.0082 128.093 29.3025 128.044C29.7048 127.978 29.9844 127.779 30.1414 127.447C30.2946 127.113 30.3332 126.715 30.2573 126.254Z" fill="#E8E8E8"/>
<path d="M30.0395 114.752L22.4033 114.795L22.3969 113.661L23.5503 113.655L23.5499 113.575C23.1712 113.438 22.8632 113.188 22.6259 112.825C22.3885 112.462 22.2685 112.051 22.266 111.594C22.2655 111.508 22.2665 111.4 22.2691 111.271C22.2717 111.141 22.2761 111.044 22.2824 110.977L23.4755 110.971C23.4658 111.01 23.4514 111.102 23.4323 111.244C23.4099 111.384 23.3991 111.531 23.4 111.687C23.4021 112.058 23.4819 112.389 23.6393 112.68C23.7934 112.967 24.0068 113.195 24.2795 113.362C24.5489 113.527 24.8559 113.608 25.2006 113.606L30.0329 113.579L30.0395 114.752Z" fill="#E8E8E8"/>
<path d="M23.7807 96.8546L24.7635 97.0051L24.1642 100.917L23.1814 100.766L23.7807 96.8546ZM21.5476 99.3492L21.7253 98.1894L28.9198 99.2915C29.2474 99.3417 29.5004 99.3319 29.6787 99.262C29.8543 99.1883 29.9815 99.0803 30.0603 98.9382C30.1363 98.7922 30.1873 98.6341 30.2134 98.4637C30.233 98.3359 30.2425 98.2301 30.242 98.1462C30.2381 98.0618 30.2351 97.9942 30.2328 97.9436L31.3107 97.8673C31.3282 97.9504 31.3408 98.0647 31.3487 98.2101C31.3599 98.356 31.3489 98.5371 31.3158 98.7533C31.2656 99.0809 31.146 99.3912 30.957 99.6841C30.7684 99.9738 30.5142 100.2 30.1942 100.362C29.8748 100.521 29.4956 100.567 29.0566 100.499L21.5476 99.3492Z" fill="#E8E8E8"/>
<path d="M38.9918 75.7695C38.6812 76.385 38.2623 76.8511 37.7349 77.1678C37.2091 77.4816 36.6171 77.6359 35.959 77.6305C35.3024 77.6222 34.6219 77.4403 33.9177 77.085C33.2075 76.7267 32.6525 76.2851 32.2528 75.7604C31.8545 75.2328 31.6253 74.6643 31.5653 74.0548C31.5067 73.4424 31.6328 72.8285 31.9433 72.213C32.2539 71.5975 32.6721 71.1329 33.1979 70.8191C33.7253 70.5023 34.3188 70.3489 34.9783 70.3587C35.6394 70.3656 36.325 70.5481 37.0352 70.9065C37.7394 71.2618 38.2892 71.7026 38.6845 72.2287C39.0814 72.7519 39.309 73.3197 39.3676 73.9321C39.4276 74.5415 39.3023 75.154 38.9918 75.7695ZM38.0508 75.2947C38.2867 74.8272 38.361 74.382 38.2736 73.9593C38.1862 73.5365 37.9838 73.1541 37.6663 72.812C37.3489 72.4699 36.9623 72.1839 36.5066 71.954C36.0509 71.7241 35.5897 71.5823 35.123 71.5287C34.6563 71.4751 34.2255 71.538 33.8305 71.7174C33.4356 71.8968 33.1202 72.2203 32.8843 72.6878C32.6484 73.1554 32.5756 73.6012 32.666 74.0255C32.7563 74.4498 32.9617 74.8337 33.2821 75.1772C33.6025 75.5208 33.9905 75.8076 34.4462 76.0375C34.9019 76.2674 35.3616 76.4084 35.8254 76.4605C36.2891 76.5126 36.717 76.4482 37.109 76.2673C37.501 76.0864 37.8149 75.7622 38.0508 75.2947Z" fill="#E8E8E8"/>
<path d="M40.799 58.1992L41.6054 58.781L39.1971 62.1194L38.3907 61.5377L40.799 58.1992ZM45.3051 65.0054L38.2573 59.9211C37.9025 59.6652 37.6669 59.3686 37.5506 59.0313C37.4343 58.694 37.4129 58.3496 37.4866 57.9982C37.5603 57.6467 37.7038 57.3232 37.9171 57.0275C38.0858 56.7937 38.2423 56.6164 38.3866 56.4957C38.5309 56.375 38.6453 56.29 38.7299 56.2407L39.3547 57.1082C39.3036 57.145 39.235 57.1976 39.1488 57.2662C39.0645 57.3321 38.9729 57.4336 38.874 57.5707C38.6471 57.8851 38.5625 58.1695 38.6203 58.4237C38.68 58.6752 38.8631 58.9114 39.1695 59.1325L45.9915 64.0539L45.3051 65.0054Z" fill="#E8E8E8"/>
<path d="M63.8863 46.4377C63.3294 46.8441 62.7442 47.0683 62.1304 47.1101C61.5193 47.1499 60.9221 47.0175 60.3387 46.713C59.7579 46.4065 59.235 45.9347 58.7699 45.2976C58.3009 44.6551 58.0079 44.0092 57.891 43.36C57.7768 42.7089 57.8318 42.0984 58.0559 41.5285C58.2828 40.9567 58.6746 40.4675 59.2314 40.061C59.7882 39.6546 60.3722 39.4314 60.9832 39.3916C61.597 39.3498 62.1952 39.4835 62.7779 39.7927C63.3633 40.0999 63.8905 40.5747 64.3595 41.2172C64.8246 41.8543 65.1133 42.4972 65.2255 43.1456C65.3405 43.7921 65.2845 44.4013 65.0577 44.9732C64.8336 45.543 64.4431 46.0312 63.8863 46.4377ZM63.2648 45.5864C63.6878 45.2776 63.9567 44.9152 64.0714 44.499C64.1862 44.0828 64.1802 43.6502 64.0534 43.2011C63.9266 42.752 63.7128 42.3213 63.4118 41.909C63.1109 41.4967 62.7649 41.1605 62.3738 40.9002C61.9827 40.6399 61.5705 40.4997 61.1372 40.4795C60.7039 40.4593 60.2758 40.6036 59.8528 40.9123C59.4299 41.2211 59.162 41.5849 59.0492 42.0037C58.9363 42.4226 58.9443 42.8579 59.073 43.3097C59.2018 43.7615 59.4166 44.1935 59.7176 44.6058C60.0185 45.018 60.3635 45.353 60.7527 45.6106C61.1418 45.8682 61.552 46.0058 61.9834 46.0233C62.4147 46.0408 62.8419 45.8951 63.2648 45.5864Z" fill="#E8E8E8"/>
<path d="M75.0233 35.9095L72.9672 31.8907L74.0117 31.3563L77.49 38.1545L76.4455 38.6889L75.8567 37.5382L75.7859 37.5744C75.8032 38.0012 75.7055 38.4216 75.493 38.8356C75.2789 39.2467 74.9151 39.5836 74.4017 39.8463C73.9769 40.0637 73.5516 40.164 73.126 40.1472C72.699 40.1274 72.2944 39.977 71.9123 39.696C71.5287 39.412 71.189 38.9808 70.8931 38.4025L68.6829 34.0828L69.7274 33.5484L71.9013 37.7972C72.155 38.2929 72.4959 38.6174 72.9243 38.7705C73.3556 38.9222 73.7881 38.887 74.2218 38.6651C74.4814 38.5322 74.7116 38.3307 74.9121 38.0606C75.1156 37.7889 75.2387 37.4691 75.2812 37.1011C75.3267 36.7315 75.2407 36.3343 75.0233 35.9095Z" fill="#E8E8E8"/>
<path d="M85.3338 35.0171L82.9658 27.7572L84.0435 27.4057L84.4012 28.5022L84.4768 28.4776C84.492 28.0752 84.6364 27.7056 84.91 27.3688C85.1836 27.0321 85.5379 26.7928 85.9727 26.6509C86.0547 26.6242 86.1576 26.5924 86.2815 26.5554C86.4054 26.5185 86.4999 26.4929 86.565 26.4787L86.935 27.613C86.8941 27.6159 86.8028 27.63 86.6611 27.6553C86.5216 27.6764 86.3778 27.7111 86.2297 27.7594C85.8768 27.8745 85.5858 28.0513 85.3568 28.2899C85.13 28.5242 84.9783 28.7968 84.9019 29.1076C84.8276 29.4142 84.8439 29.7314 84.9508 30.0591L86.4492 34.6533L85.3338 35.0171Z" fill="#E8E8E8"/>
<path d="M115.028 25.0739L113.974 25.3722C113.908 25.1965 113.81 25.0258 113.681 24.8601C113.555 24.6911 113.382 24.5518 113.164 24.4425C112.945 24.3331 112.665 24.2784 112.323 24.2784C111.856 24.2784 111.467 24.3861 111.155 24.6016C110.847 24.8137 110.693 25.0838 110.693 25.4119C110.693 25.7036 110.799 25.9339 111.011 26.103C111.223 26.272 111.555 26.4129 112.005 26.5256L113.139 26.804C113.822 26.9697 114.33 27.2232 114.665 27.5646C115 27.9027 115.167 28.3385 115.167 28.8722C115.167 29.3097 115.041 29.7008 114.789 30.0455C114.541 30.3902 114.193 30.6619 113.745 30.8608C113.298 31.0597 112.778 31.1591 112.184 31.1591C111.405 31.1591 110.761 30.9901 110.25 30.652C109.74 30.3139 109.417 29.8201 109.281 29.1705L110.394 28.892C110.501 29.303 110.701 29.6113 110.996 29.8168C111.294 30.0223 111.684 30.125 112.164 30.125C112.711 30.125 113.145 30.009 113.467 29.777C113.792 29.5417 113.954 29.2599 113.954 28.9318C113.954 28.6667 113.861 28.4446 113.676 28.2656C113.49 28.0833 113.205 27.9474 112.821 27.858L111.548 27.5597C110.849 27.3939 110.335 27.1371 110.007 26.7891C109.682 26.4377 109.519 25.9986 109.519 25.4716C109.519 25.0407 109.64 24.6596 109.882 24.3281C110.128 23.9967 110.461 23.7365 110.882 23.5476C111.306 23.3587 111.787 23.2642 112.323 23.2642C113.079 23.2642 113.672 23.4299 114.103 23.7614C114.537 24.0928 114.846 24.5303 115.028 25.0739Z" fill="#E8E8E8"/>
<path d="M125.19 31.6644C124.51 31.5561 123.938 31.2992 123.476 30.8934C123.016 30.4882 122.689 29.9713 122.494 29.3429C122.302 28.715 122.267 28.0115 122.391 27.2325C122.516 26.4469 122.768 25.7838 123.145 25.2431C123.527 24.703 123.998 24.3115 124.56 24.0686C125.126 23.8262 125.749 23.7591 126.43 23.8674C127.111 23.9756 127.681 24.2323 128.14 24.6376C128.602 25.0433 128.929 25.5618 129.121 26.193C129.316 26.8247 129.351 27.5333 129.226 28.3189C129.102 29.098 128.85 29.7559 128.469 30.2928C128.092 30.8301 127.62 31.22 127.055 31.4624C126.493 31.7053 125.871 31.7726 125.19 31.6644ZM125.356 30.6235C125.873 30.7057 126.32 30.6407 126.696 30.4287C127.072 30.2166 127.374 29.9073 127.603 29.5007C127.832 29.0941 127.987 28.6388 128.067 28.1347C128.147 27.6306 128.142 27.1482 128.051 26.6873C127.959 26.2265 127.768 25.8353 127.477 25.5138C127.186 25.1923 126.782 24.9905 126.264 24.9083C125.747 24.8261 125.3 24.8926 124.924 25.108C124.547 25.3233 124.244 25.6359 124.015 26.0458C123.785 26.4556 123.63 26.9126 123.55 27.4167C123.47 27.9208 123.476 28.4016 123.567 28.8592C123.659 29.3167 123.851 29.7046 124.143 30.0228C124.434 30.341 124.839 30.5412 125.356 30.6235Z" fill="#E8E8E8"/>
<path d="M138.456 34.9203C137.775 34.6983 137.242 34.3464 136.855 33.8647C136.468 33.383 136.235 32.8169 136.154 32.1666C136.073 31.5162 136.151 30.8286 136.387 30.1039C136.628 29.3666 136.976 28.7601 137.431 28.2844C137.89 27.8067 138.415 27.4883 139.008 27.3293C139.604 27.1683 140.23 27.1946 140.885 27.4084C141.396 27.5749 141.825 27.8195 142.173 28.1421C142.521 28.4648 142.77 28.8389 142.921 29.2646C143.071 29.6902 143.104 30.1401 143.019 30.6144L141.904 30.2506C141.926 29.892 141.833 29.5373 141.623 29.1865C141.418 28.8335 141.069 28.5769 140.577 28.4166C140.143 28.2748 139.724 28.2638 139.323 28.3838C138.925 28.5017 138.568 28.7356 138.252 29.0856C137.94 29.4335 137.694 29.8816 137.515 30.4299C137.332 30.9908 137.261 31.508 137.302 31.9815C137.346 32.456 137.493 32.8612 137.742 33.1971C137.995 33.534 138.342 33.7744 138.783 33.9183C139.073 34.0128 139.352 34.0482 139.622 34.0245C139.891 34.0007 140.138 33.921 140.364 33.7854C140.589 33.6498 140.78 33.4609 140.935 33.2189L142.051 33.5827C141.848 33.9907 141.566 34.3258 141.205 34.5881C140.848 34.8482 140.434 35.0128 139.962 35.0819C139.494 35.1489 138.992 35.095 138.456 34.9203Z" fill="#E8E8E8"/>
<path d="M149.252 39.2501L152.73 32.4519L153.774 32.9863L150.296 39.7845L149.252 39.2501ZM153.841 31.5906C153.637 31.4864 153.497 31.3273 153.42 31.1131C153.347 30.9004 153.36 30.6967 153.459 30.502C153.559 30.3073 153.717 30.1775 153.932 30.1128C154.151 30.0497 154.362 30.0701 154.565 30.1743C154.769 30.2785 154.908 30.4369 154.981 30.6495C155.058 30.8637 155.046 31.0682 154.947 31.2629C154.847 31.4576 154.688 31.5866 154.469 31.6498C154.254 31.7145 154.044 31.6948 153.841 31.5906Z" fill="#E8E8E8"/>
<path d="M160.573 46.3598C160.182 46.0745 159.881 45.7419 159.67 45.3621C159.461 44.9797 159.365 44.5795 159.383 44.1616C159.403 43.7411 159.559 43.33 159.853 42.9285C160.11 42.5751 160.389 42.3395 160.689 42.2216C160.99 42.101 161.303 42.0628 161.628 42.107C161.953 42.1512 162.278 42.2451 162.604 42.3887C162.935 42.5316 163.257 42.6889 163.571 42.8605C163.981 43.0859 164.311 43.2716 164.561 43.4175C164.816 43.5627 165.02 43.6436 165.172 43.6602C165.327 43.6787 165.46 43.6117 165.571 43.4591L165.595 43.427C165.884 43.0308 166 42.6438 165.944 42.266C165.89 41.8901 165.645 41.543 165.208 41.2244C164.756 40.8942 164.329 40.7343 163.927 40.7448C163.526 40.7553 163.19 40.8349 162.922 40.9835L162.257 40.0057C162.691 39.7481 163.118 39.6127 163.538 39.5993C163.963 39.5852 164.365 39.6529 164.744 39.8025C165.128 39.9513 165.475 40.1391 165.786 40.3657C165.984 40.5104 166.194 40.7006 166.416 40.9363C166.642 41.1714 166.823 41.4492 166.958 41.7696C167.097 42.092 167.139 42.4577 167.087 42.8667C167.035 43.2758 166.83 43.7253 166.472 44.2152L163.506 48.2788L162.558 47.5871L163.168 46.7518L163.119 46.7167C162.957 46.8036 162.746 46.8687 162.484 46.9118C162.223 46.955 161.929 46.9392 161.602 46.8646C161.275 46.7899 160.932 46.6216 160.573 46.3598ZM161.339 45.614C161.714 45.8876 162.083 46.0446 162.448 46.085C162.815 46.1273 163.149 46.0799 163.45 45.9427C163.754 45.8075 164 45.6114 164.188 45.3544L164.821 44.4871C164.745 44.506 164.625 44.4856 164.459 44.4261C164.298 44.3659 164.118 44.286 163.92 44.1865C163.726 44.0862 163.539 43.9863 163.357 43.8865C163.18 43.786 163.036 43.7054 162.925 43.6445C162.655 43.4968 162.386 43.381 162.12 43.2969C161.857 43.2121 161.609 43.1928 161.374 43.2389C161.144 43.2843 160.941 43.4275 160.765 43.6684C160.525 43.9977 160.465 44.3356 160.585 44.6821C160.71 45.0278 160.962 45.3385 161.339 45.614Z" fill="#E8E8E8"/>
<path d="M178.271 47.9845L171.051 55.1638L170.224 54.3319L177.444 47.1525L178.271 47.9845Z" fill="#E8E8E8"/>
<path d="M185.938 76.4205C185.615 75.7814 185.488 75.1549 185.557 74.541C185.626 73.927 185.863 73.3622 186.267 72.8464C186.671 72.3306 187.214 71.9009 187.894 71.5575C188.587 71.2082 189.262 71.0271 189.92 71.0143C190.582 71.003 191.179 71.1513 191.709 71.4591C192.244 71.7685 192.667 72.2309 192.977 72.8463C193.219 73.3257 193.348 73.8025 193.365 74.2768C193.381 74.751 193.292 75.1916 193.096 75.5984C192.9 76.0053 192.604 76.3458 192.208 76.62L191.68 75.5725C191.95 75.3358 192.136 75.0194 192.237 74.6233C192.342 74.2286 192.278 73.8005 192.045 73.3389C191.839 72.9305 191.552 72.6262 191.184 72.426C190.82 72.2272 190.402 72.1391 189.931 72.1615C189.464 72.1855 188.973 72.3273 188.458 72.5871C187.932 72.8529 187.515 73.1672 187.208 73.53C186.902 73.8957 186.718 74.2855 186.656 74.6992C186.595 75.116 186.67 75.5315 186.879 75.9458C187.016 76.218 187.188 76.4412 187.395 76.6153C187.601 76.7895 187.832 76.9087 188.087 76.973C188.343 77.0373 188.611 77.0393 188.892 76.9789L189.421 78.0264C188.989 78.1703 188.552 78.2067 188.112 78.1357C187.676 78.0662 187.267 77.8883 186.885 77.6021C186.507 77.3175 186.191 76.9236 185.938 76.4205Z" fill="#E8E8E8"/>
<path d="M190.507 87.7359C190.297 87.0793 190.269 86.4532 190.423 85.8576C190.577 85.2651 190.891 84.7401 191.365 84.2825C191.839 83.8281 192.451 83.4807 193.203 83.2403C193.96 82.9979 194.665 82.9237 195.318 83.0175C195.972 83.1145 196.534 83.3593 197.004 83.7517C197.475 84.1473 197.816 84.6735 198.026 85.3301C198.236 85.9867 198.264 86.6112 198.109 87.2036C197.955 87.7992 197.639 88.3248 197.162 88.7802C196.686 89.2388 196.069 89.5893 195.311 89.8317C194.56 90.072 193.859 90.1432 193.208 90.0452C192.558 89.9503 191.998 89.7051 191.527 89.3095C191.057 88.917 190.717 88.3925 190.507 87.7359ZM191.511 87.4147C191.67 87.9135 191.929 88.2829 192.288 88.5231C192.647 88.7633 193.059 88.8941 193.525 88.9154C193.992 88.9368 194.468 88.8697 194.954 88.7142C195.44 88.5586 195.868 88.3363 196.239 88.0473C196.609 87.7583 196.872 87.4114 197.028 87.0066C197.184 86.6018 197.182 86.15 197.022 85.6512C196.863 85.1525 196.602 84.7835 196.24 84.5443C195.878 84.3052 195.463 84.1754 194.993 84.1551C194.524 84.1347 194.046 84.2023 193.56 84.3578C193.074 84.5134 192.647 84.7351 192.28 85.0231C191.913 85.3111 191.653 85.657 191.5 86.0608C191.348 86.4646 191.351 86.9159 191.511 87.4147Z" fill="#E8E8E8"/>
<path d="M192.934 95.8064L200.482 94.65L200.654 95.7704L199.474 95.9511L199.489 96.0494C199.917 96.1449 200.268 96.3509 200.545 96.6673C200.825 96.9833 201.002 97.3869 201.077 97.8783C201.154 98.3763 201.104 98.8081 200.929 99.1736C200.757 99.5419 200.484 99.8503 200.11 100.099L200.122 100.177C200.541 100.311 200.895 100.553 201.184 100.905C201.476 101.256 201.663 101.702 201.746 102.242C201.849 102.917 201.723 103.502 201.366 103.995C201.012 104.489 200.391 104.804 199.503 104.94L194.452 105.714L194.274 104.554L199.326 103.78C199.883 103.694 200.257 103.481 200.45 103.14C200.642 102.799 200.707 102.421 200.644 102.009C200.563 101.478 200.339 101.091 199.973 100.849C199.611 100.606 199.186 100.522 198.697 100.597L193.783 101.35L193.602 100.17L198.772 99.3782C199.201 99.3125 199.526 99.1203 199.745 98.8017C199.968 98.4825 200.046 98.1035 199.978 97.6645C199.932 97.3631 199.809 97.0936 199.608 96.8561C199.408 96.6219 199.153 96.4463 198.843 96.3295C198.537 96.2154 198.199 96.1867 197.829 96.2434L193.112 96.9661L192.934 95.8064Z" fill="#E8E8E8"/>
<path d="M194.595 108.675L202.232 108.718L202.225 109.852L201.032 109.845L201.032 109.944C201.438 110.106 201.753 110.364 201.977 110.72C202.203 111.076 202.315 111.503 202.313 112C202.31 112.504 202.193 112.922 201.962 113.256C201.735 113.592 201.417 113.854 201.008 114.041L201.008 114.12C201.401 114.318 201.713 114.613 201.943 115.006C202.176 115.398 202.291 115.868 202.288 116.415C202.284 117.097 202.067 117.655 201.637 118.086C201.21 118.518 200.548 118.731 199.65 118.726L194.539 118.698L194.546 117.524L199.656 117.553C200.22 117.556 200.623 117.404 200.867 117.098C201.111 116.791 201.234 116.428 201.236 116.011C201.239 115.474 201.079 115.057 200.756 114.76C200.436 114.463 200.029 114.314 199.535 114.311L194.564 114.283L194.571 113.09L199.801 113.119C200.235 113.122 200.585 112.983 200.852 112.703C201.122 112.422 201.258 112.06 201.261 111.616C201.262 111.311 201.183 111.026 201.022 110.76C200.861 110.497 200.637 110.283 200.349 110.119C200.065 109.959 199.736 109.877 199.361 109.875L194.589 109.848L194.595 108.675Z" fill="#E8E8E8"/>
<path d="M196.262 128.434L200.716 129.167L200.525 130.325L192.991 129.084L193.181 127.926L194.457 128.136L194.47 128.058C194.116 127.818 193.836 127.49 193.629 127.073C193.426 126.656 193.371 126.164 193.465 125.595C193.542 125.124 193.714 124.722 193.981 124.39C194.25 124.058 194.612 123.822 195.065 123.681C195.521 123.542 196.07 123.525 196.711 123.63L201.498 124.419L201.308 125.577L196.598 124.801C196.049 124.71 195.585 124.792 195.208 125.045C194.83 125.302 194.601 125.671 194.522 126.152C194.474 126.439 194.5 126.744 194.598 127.066C194.695 127.391 194.88 127.68 195.15 127.933C195.42 128.189 195.791 128.356 196.262 128.434Z" fill="#E8E8E8"/>
<path d="M195.313 138.405L190.954 136.956L191.324 135.843L198.57 138.252L198.213 139.327L197.08 138.951L197.049 139.045C197.361 139.337 197.571 139.693 197.679 140.114C197.79 140.535 197.755 141.019 197.573 141.566C197.41 142.057 197.167 142.453 196.843 142.754C196.523 143.056 196.126 143.242 195.652 143.312C195.181 143.382 194.638 143.315 194.021 143.11L189.417 141.58L189.787 140.466L194.316 141.972C194.885 142.161 195.378 142.16 195.794 141.97C196.213 141.781 196.508 141.429 196.68 140.913C196.798 140.558 196.826 140.215 196.765 139.883C196.703 139.555 196.551 139.262 196.309 139.003C196.066 138.745 195.734 138.545 195.313 138.405Z" fill="#E8E8E8"/>
<path d="M185.599 150.123L192.378 153.64L191.837 154.681L185.059 151.164L185.599 150.123ZM193.233 154.755C193.338 154.552 193.498 154.413 193.713 154.338C193.926 154.265 194.129 154.279 194.323 154.38C194.518 154.481 194.646 154.639 194.71 154.855C194.772 155.074 194.75 155.285 194.645 155.488C194.54 155.691 194.38 155.829 194.167 155.901C193.953 155.976 193.748 155.964 193.554 155.863C193.36 155.762 193.232 155.602 193.17 155.384C193.107 155.168 193.127 154.958 193.233 154.755Z" fill="#E8E8E8"/>
<path d="M183.242 168.039L182.442 167.448L184.794 164.265L185.593 164.856L183.242 168.039ZM186.38 166.871L185.683 167.814L179.828 163.49C179.561 163.293 179.333 163.184 179.143 163.163C178.953 163.146 178.79 163.183 178.654 163.272C178.519 163.365 178.4 163.482 178.298 163.62C178.221 163.724 178.163 163.814 178.125 163.888C178.089 163.965 178.06 164.026 178.039 164.072L177.049 163.637C177.072 163.556 177.114 163.449 177.175 163.316C177.233 163.182 177.327 163.027 177.457 162.851C177.654 162.584 177.904 162.365 178.208 162.194C178.509 162.026 178.84 161.944 179.198 161.949C179.555 161.957 179.912 162.093 180.269 162.357L186.38 166.871Z" fill="#E8E8E8"/>
<path d="M169.117 168.256C169.258 168.116 169.396 168.004 169.531 167.918C169.663 167.83 169.76 167.776 169.824 167.755L170.336 168.702C170.082 168.85 169.884 169.008 169.742 169.175C169.6 169.343 169.53 169.548 169.533 169.792C169.53 170.036 169.615 170.346 169.785 170.722L170.047 171.301L177.443 174.795L176.535 175.687L170.765 172.826L170.709 172.882L173.472 178.699L172.565 179.591L168.741 171.079C168.569 170.696 168.469 170.336 168.441 170.001C168.411 169.663 168.453 169.349 168.568 169.06C168.681 168.772 168.864 168.504 169.117 168.256Z" fill="#E8E8E8"/>
</svg>
